<?xml version="1.0" encoding="UTF-8"?>
<svg id="Layer_1" xmlns="http://www.w3.org/2000/svg" xmlns:xlink="http://www.w3.org/1999/xlink" version="1.1" viewBox="0 0 595.3 841.9">
  <!-- Generator: Adobe Illustrator 29.1.0, SVG Export Plug-In . SVG Version: 2.1.0 Build 142)  -->
  <defs>
    <style>
      .st0 {
        fill: none;
      }

      .st1 {
        filter: url(#drop-shadow-1);
      }

      .st1, .st2 {
        fill: #fff38d;
        font-family: BrushScriptMT, 'Brush Script MT';
        font-size: 61.7px;
      }

      .st2 {
        filter: url(#drop-shadow-2);
      }

      .st3 {
        clip-path: url(#clippath);
      }
    </style>
    <clipPath id="clippath">
      <path class="st0" d="M247.2,286.7c-15.1,0-39.4,5-50.8,10.7s-33.6,21.1-43.2,29.9-26,25.5-32.9,40.4c-6.2,13.3-10.8,31.5-10.8,53s4.4,44,8.5,55.5,14,30.2,20.6,40.5,29.7,32.1,43.6,39c13.9,6.9,40.8,12.9,55.3,12.9s38.2-4.3,55.3-12c16-7.2,31.6-13.7,43.7-28.4,12.1-14.7,23.7-44.2,27.6-54.3,4.4-11.1,11.7-39,11.7-65.2s-11.7-47.9-27.7-66.9-35.9-33.5-41.9-36.8-14-9.1-21.6-11.5-22.3-6.9-37.5-6.9Z"/>
    </clipPath>
    <filter id="drop-shadow-1" filterUnits="userSpaceOnUse">
      <feOffset dx="7" dy="7"/>
      <feGaussianBlur result="blur" stdDeviation="4"/>
      <feFlood flood-color="#231f20" flood-opacity=".8"/>
      <feComposite in2="blur" operator="in"/>
      <feComposite in="SourceGraphic"/>
    </filter>
    <filter id="drop-shadow-2" filterUnits="userSpaceOnUse">
      <feOffset dx="7" dy="7"/>
      <feGaussianBlur result="blur1" stdDeviation="4"/>
      <feFlood flood-color="#231f20" flood-opacity=".8"/>
      <feComposite in2="blur1" operator="in"/>
      <feComposite in="SourceGraphic"/>
    </filter>
  </defs>
  <g class="st3">
    <g id="Nvi4MX">
      <image id="Nvi4MX1" data-name="Nvi4MX" width="2104" height="1403" transform="translate(-120.2 231.5) scale(.3)" xlink:href="blueberry_splash-1.png"/>
    </g>
  </g>
  <text class="st1" transform="translate(103.6 332.8)"><tspan x="0" y="0">Blüberry</tspan></text>
  <text class="st2" transform="translate(191.8 530.9)"><tspan x="0" y="0">colormap editor</tspan></text>
</svg>